{"title":"Colombiana.2011.HDRip.READNFO.XviD.AC3-BHP","uid":6748566,"size":1087423300,"categoryP":"video","categoryS":"hd___movies","magnet":"?xt=urn:btih:ad537baac848d35324da5db85ed655b39cb83353&amp;dn=Colombiana.2011.HDRip.READNFO.XviD.AC3-BHP&amp;tr=udp%3A%2F%2Ftracker.openbittorrent.com%3A80&amp;tr=udp%3A%2F%2Fopen.demonii.com%3A1337&amp;tr=udp%3A%2F%2Ftracker.coppersurfer.tk%3A6969&amp;tr=udp%3A%2F%2Fexodus.desync.com%3A6969","seeders":0,"leechers":0,"uploader":"john3450","files":-1,"time":1318798541,"description":"Plot:\nColombiana (2011)\nPG_13  108 min  -  Action | Crime | Drama   -  26 August 2011 (USA)\n5.9\n\nA young woman, after witnessing her parents\\\\\\\\\\\\\\\\\\\\\\\\\\\\\\\\\\\\\\\\\\\\\\\\\\\\\\\\\\\\\\' murder as a child in Bogota, grows up to be a stone-cold assassin.\n\nDirector: Olivier Megaton\nWriters: Luc Besson (screenplay), Robert Mark Kamen (screenplay)\nStars: Zoe Saldana, Michael Vartan and Callum Blue \n\nCast:\nZoe Saldana ... Cataleya\nJordi MollÃƒÂ  ... Marco\nLennie James ... Ross\nAmandla Stenberg ... Cat - 10\nMichael Vartan ... Danny Delanay\nCliff Curtis ... Emilio Restrepo\nBeto Benites ... Don Luis\nJesse Borrego ... Fabio\nCynthia Addai-Robinson ... Alicia\nAngel Garnica ... Pepe\nOfelia Medina ... Mama\nCallum Blue ... Richard\nSam Douglas ... William Woogard\nGraham McTavish ... Head Marshall Warren\nCharles Maquignon ... Sergeant Bill Attwood\n\nInfo:\nColombiana 2011 - HD Rip Quality\n &lt;a href=&quot;\nhttp://www.imdb.com/title/tt1657507&quot; rel=&quot;nofollow&quot; target=&quot;_NEW&quot;&gt;\nhttp://www.imdb.com/title/tt1657507&lt;/a&gt;\n\nGeneral\nFormat: AVI\nFormat/Info: Audio Video Interleave\nFile size: 1.00 GiB\nDuration: 1h 47mn\nOverall bit rate: 1 332 Kbps\nWriting application: VirtualDubMod 1.5.10.2 (build 2540/release)\nWriting library: VirtualDubMod build 2540/release\n\nVideo\nID: 0\nFormat: MPEG-4 Visual\nFormat profile: Advanced Simple@L5\nFormat settings, BVOP: 2\nFormat settings, QPel: No\nFormat settings, GMC: No warppoints\nFormat settings, Matrix: Default (H.263)\nMuxing mode: Packed bitstream\nCodec ID: XVID\nCodec ID/Hint: XviD\nDuration: 1h 47mn\nBit rate: 1 130 Kbps\nWidth: 672 pixels\nHeight: 256 pixels\nDisplay aspect ratio: 2.625\nFrame rate: 23.976 fps\nColor space: YUV\nChroma subsampling: 4:2:0\nBit depth: 8 bits\nScan type: Progressive\nCompression mode: Lossy\nBits/(Pixel*Frame): 0.274\nStream size: 872 MiB (85%)\nWriting library: XviD 64\n\nAudio\nID: 1\nFormat: AC-3\nFormat/Info: Audio Coding 3\nMode extension: CM (complete main)\nCodec ID: 2000\nDuration: 1h 47mn\nBit rate mode: Constant\nBit rate: 192 Kbps\nChannel(s): 2 channels\nChannel positions: Front: L R\nSampling rate: 48.0 KHz\nBit depth: 16 bits\nCompression mode: Lossy\nStream size: 148 MiB (14%)\nAlignment: Split accross interleaves\nInterleave, duration: 42 ms (1.00 video frame)\nInterleave, preload duration: 500 ms","torrent":{"xt":"urn:btih:ad537baac848d35324da5db85ed655b39cb83353","amp;dn":"Colombiana.2011.HDRip.READNFO.XviD.AC3-BHP","amp;tr":["udp%3A%2F%2Ftracker.openbittorrent.com%3A80","udp%3A%2F%2Fopen.demonii.com%3A1337","udp%3A%2F%2Ftracker.coppersurfer.tk%3A6969","udp%3A%2F%2Fexodus.desync.com%3A6969"],"infoHash":"ad537baac848d35324da5db85ed655b39cb83353","infoHashBuffer":{"type":"Buffer","data":[173,83,123,170,200,72,211,83,36,218,93,184,94,214,85,179,156,184,51,83]},"announce":[],"urlList":[]}}